<svg xmlns="http://www.w3.org/2000/svg" viewBox="0 0 570.8 570.8"><title>logo</title><path d="M591.52,492.4c0,55-45,100-100,100H120.73c-55,0-100-45-100-100" transform="translate(-20.73 -21.6)" style="fill:#73bbef"/><path d="M20.73,492.4V121.6c0-55,45-100,100-100h370.8c55,0,100,45,100,100V492.4" transform="translate(-20.73 -21.6)" style="fill:#ededed"/><path d="M177.24,376.91v10.92h-135V375.92l114.19-147.3H51.13V217.7H171.95v11.92L57.42,376.91H177.24Z" transform="translate(-20.73 -21.6)" style="fill:#adadad"/><path d="M224.91,304.42v2a100.46,100.46,0,0,0,4,28.47,72.69,72.69,0,0,0,11.78,23.83,55.89,55.89,0,0,0,19.58,16.22q11.78,6,27.38,6,25.55,0,40.49-13.41t20.58-37.24h12.58Q355.65,360,337,375.92t-49.48,15.89q-18.87,0-32.93-6.79A66.93,66.93,0,0,1,231,366.49,78.61,78.61,0,0,1,217,338.68a124.08,124.08,0,0,1-4.63-34.59,121.17,121.17,0,0,1,4.8-34.26,86,86,0,0,1,14.4-28.8,71.3,71.3,0,0,1,24-19.86q14.4-7.45,33.93-7.45,17.87,0,31.61,6.62a66.29,66.29,0,0,1,23,18,80.3,80.3,0,0,1,14.07,26.48,105.83,105.83,0,0,1,4.8,32.27q0,1.66-.17,3.81c-0.11,1.44-.17,2.6-0.17,3.48H224.91ZM350,293.5a101.82,101.82,0,0,0-4.64-26.31,65.21,65.21,0,0,0-11.78-21.85,58.68,58.68,0,0,0-18.92-15.06,55.5,55.5,0,0,0-25.39-5.63q-15.27,0-26.88,5.79a60.71,60.71,0,0,0-19.58,15.23,67.83,67.83,0,0,0-12.28,22,103.1,103.1,0,0,0-5.31,25.82H350Z" transform="translate(-20.73 -21.6)" style="fill:#adadad"/><path d="M419.53,217.7h12.58v36.41h0.66a54.48,54.48,0,0,1,9.43-17,62.65,62.65,0,0,1,31.94-20.69,73.15,73.15,0,0,1,19.53-2.65q14.9,0,25.32,3.64a49.67,49.67,0,0,1,17,9.6,46.42,46.42,0,0,1,10.43,13.41,62.18,62.18,0,0,1,5.46,15.06,89,89,0,0,1,2,14.73q0.33,7.12.33,12.41V387.83H541.67V280.26q0-6.28-1-15.89A48.4,48.4,0,0,0,534.89,246a42.13,42.13,0,0,0-14.56-15.06q-9.77-6.28-27-6.29-14.57,0-25.82,5.3a55.93,55.93,0,0,0-19.2,14.73,64.83,64.83,0,0,0-12.08,22.51,94.41,94.41,0,0,0-4.14,28.63v92H419.53V217.7Z" transform="translate(-20.73 -21.6)" style="fill:#adadad"/></svg>